Mike Leigh’s brilliant and controversial Naked stars David Thewlis as Johnny, a charming, eloquent, and relentlessly vicious drifter on the lam in London. Rejecting all those who would care for him, the volcanic Johnny hurls himself into a nocturnal odyssey through the city, colliding with a succession of the desperate and the dispossessed, and scorching everyone in his path. With a virtuoso script and raw performances from Thewlis and costars Katrin Cartlidge and Lesley Sharpe, Leigh’s panorama of England’s crumbling underbelly is a showcase of black comedy and doomsday prophecy, and was the winner of the best director and actor prizes at the 1993 Cannes Film Festival.

   General
      Complete name : Naked.mkv
      Format : Matroska
      File size : 3.08 GiB
      Duration : 2h 11mn
      Overall bit rate : 3 348 Kbps
      Encoded date : UTC 2011-07-09 06:01:32
      Writing application : mkvmerge v4.8.0 ('I Got The...') built on May 24 2011 03:12:58
      Writing library : libebml v1.2.0 + libmatroska v1.1.0
   Video #1
      ID : 1
      Format : AVC
      Format/Info : Advanced Video Codec
      Format profile : High@L4.1
      Format settings, CABAC : Yes
      Format settings, ReFrames : 8 frames
      Muxing mode : Container profile=Unknown@4.1
      Codec ID : V_MPEG4/ISO/AVC
      Duration : 2h 11mn
      Bit rate : 2 833 Kbps
      Nominal bit rate : 2 899 Kbps
      Width : 1 280 pixels
      Height : 694 pixels
      Display aspect ratio : 16:9
      Frame rate : 23.976 fps
      Resolution : 24 bits
      Colorimetry : 4:2:0
      Scan type : Progressive
      Bits/(Pixel*Frame) : 0.133
      Stream size : 2.61 GiB (85%)
      Title : Vid_1
      Writing library : x264 core 115 r2008 4c552d8    
   Audio #2
      ID : 2
      Format : AC-3
      Format/Info : Audio Coding 3
      Codec ID : A_AC3
      Duration : 2h 11mn
      Bit rate mode : Constant
      Bit rate : 448 Kbps
      Channel(s) : 2 channels
      Channel positions : L R
      Sampling rate : 48.0 KHz
      Stream size : 422 MiB (13%)
      Title : Au_0
 
http://www.imdb.com/title/tt0107653/

English audio; English and Portuguese subtitles

Mike Leigh - Naked (1993)